<svg width="17" height="17" viewBox="0 0 17 17" fill="none" xmlns="http://www.w3.org/2000/svg">
<path d="M13.3351 0H2.66695C1.9596 0 1.28129 0.280948 0.781121 0.781121C0.280948 1.28129 0 1.9596 0 2.66695V13.3351C0 14.0424 0.280948 14.7207 0.781121 15.2209C1.28129 15.7211 1.9596 16.002 2.66695 16.002H13.3351C14.0424 16.002 14.7207 15.7211 15.2209 15.2209C15.7211 14.7207 16.002 14.0424 16.002 13.3351V2.66695C16.002 1.9596 15.7211 1.28129 15.2209 0.781121C14.7207 0.280948 14.0424 0 13.3351 0V0ZM14.6686 13.335H14.6685C14.6685 13.6886 14.5281 14.0278 14.2779 14.2779C14.0279 14.528 13.6887 14.6684 13.3351 14.6684H2.66695C2.31333 14.6684 1.97412 14.528 1.72409 14.2779C1.47395 14.0278 1.33353 13.6886 1.33353 13.335V2.66689C1.33353 2.31327 1.47395 1.97406 1.72409 1.72403C1.97412 1.47389 2.31333 1.33347 2.66695 1.33347H13.3351C13.6887 1.33347 14.0279 1.47389 14.2779 1.72403C14.5281 1.97406 14.6685 2.31327 14.6685 2.66689L14.6686 13.335Z" fill="black"/>
<path d="M8.00102 4.00047C6.94007 4.00047 5.92255 4.42195 5.17223 5.17215C4.42203 5.92247 4.00055 6.93999 4.00055 8.00095C4.00055 9.0619 4.42203 10.0794 5.17223 10.8297C5.92255 11.5799 6.94007 12.0014 8.00102 12.0014C9.06198 12.0014 10.0795 11.5799 10.8298 10.8297C11.58 10.0794 12.0015 9.0619 12.0015 8.00095C12.0015 6.93999 11.58 5.92247 10.8298 5.17215C10.0795 4.42195 9.06198 4.00047 8.00102 4.00047V4.00047ZM8.00102 10.6678C7.29368 10.6678 6.61537 10.3869 6.1152 9.88671C5.61503 9.38654 5.33408 8.70823 5.33408 8.00089C5.33408 7.29355 5.61503 6.61524 6.1152 6.11507C6.61537 5.61489 7.29368 5.33395 8.00102 5.33395C8.70837 5.33395 9.38667 5.61489 9.88685 6.11507C10.387 6.61524 10.668 7.29355 10.668 8.00089C10.668 8.70823 10.387 9.38654 9.88685 9.88671C9.38667 10.3869 8.70837 10.6678 8.00102 10.6678Z" fill="black"/>
<path d="M13.3351 3.667C13.3351 4.21941 12.8873 4.66712 12.335 4.66712C11.7825 4.66712 11.3348 4.21941 11.3348 3.667C11.3348 3.11471 11.7825 2.66689 12.335 2.66689C12.8873 2.66689 13.3351 3.11471 13.3351 3.667Z" fill="black"/>
</svg>
